<?xml version="1.0" encoding="UTF-8"?>
<svg width="333px" height="346px" viewBox="0 0 333 346" version="1.1" xmlns="http://www.w3.org/2000/svg" xmlns:xlink="http://www.w3.org/1999/xlink">
    <title>_417474040</title>
    <g id="Working-Spaces" stroke="none" stroke-width="1" fill="none" fill-rule="evenodd">
        <g id="Question" transform="translate(-28.000000, -120.000000)">
            <g id="_417474040" transform="translate(29.000000, 121.000000)">
                <polygon id="Path" fill="#EBEBEB" points="17.9963937 285 168.9999 285 320.004005 285 324 345 168.9999 345 14 345"></polygon>
                <path d="M169.499666,92 C174.194428,92 178,88.194209 178,83.5 C178,78.805124 174.194428,75 169.499666,75 C164.805572,75 161,78.805124 161,83.5 C161,88.194209 164.805572,92 169.499666,92 Z" id="Path" stroke="#1009C1" stroke-width="1.2939" fill="#1009C1" fill-rule="nonzero" stroke-linecap="round" stroke-linejoin="round"></path>
                <polyline id="Path" stroke="#87B3F6" stroke-width="1.2939" stroke-linecap="round" stroke-linejoin="round" points="14 172 116.826688 89 183.616461 135.470992 227.041135 103.092385 312 160.112118"></polyline>
                <path d="M34.7528277,271.169289 C31.7895466,290.205027 36.7283042,302.823177 64.9009201,309.02507 C95.692898,315.786838 123.865713,307.173024 123.865713,307.173024 L111.754848,339 L121.675387,338.526004 L161.743951,308.766769 L257.38466,307.087145 C257.38466,307.087145 292.170946,308.89592 302.349755,282.969263 C312.484745,257.043272 290.496498,241.495933 287.490194,240.376183 C284.483889,239.299706 226.721419,216 226.721419,216 L217.531211,216.430724 L126.528762,216.430724 L53.477296,248.2577 C53.477296,248.2577 37.6731521,253.425723 34.7528277,271.169289 Z" id="Path" fill="#D7BFAD"></path>
                <path d="M116,309 C121.168673,307.976703 124.201728,307.080659 124.201728,307.080659 L136.930915,275.473846 L189,270.014505 L121.339708,264 C121.339708,264 121.595929,270.995604 121.296784,282.469451 C121.12641,290.104615 118.050432,301.919341 116,309 Z" id="Path" fill="#967FE8"></path>
                <path d="M303,258.101219 C298.697477,247.370244 289.620211,241.182744 287.770572,240.490488 C284.759006,239.408963 226.895427,216 226.895427,216 L217.689133,216.432744 L126.526728,216.432744 L53.3479906,248.408963 C53.3479906,248.408963 42.3775882,252 37,263.552988 C44.3135572,260.783963 55.6281481,257.495244 65.6090833,258.490488 C82.0861695,260.134512 109.834748,262.947012 109.834748,262.947012 L189.123148,270 L268.583143,258.057744 C268.583143,258.057744 289.147326,253.817256 303,258.101219 Z" id="Path" fill="#967FE8"></path>
                <path d="M248,224.394694 C236.57519,219.807744 227.169609,216 227.169609,216 L217.977836,216.432744 L126.96647,216.432744 L103,226.904206 L110.302025,262.947012 L189.458972,270 L240.870616,262.514269 L248,224.394694 Z" id="Path" fill="#4F434D"></path>
                <path d="M248,225.285172 C236.57519,220.758066 227.169609,217 227.169609,217 L217.977836,217.427098 L126.96647,217.427098 L103,227.761944 L110.302025,263.334516 L124.38948,264.572902 L120.953273,244.501939 C120.953273,244.501939 148.312791,227.291938 183.231301,231.52001 C218.149812,235.747421 229.145013,243.818714 229.145013,243.818714 L226.181575,265 L240.870616,262.907418 L248,225.285172 Z" id="Path" fill="#4F434D"></path>
                <path d="M167.599358,119.258056 L166.826763,126.486296 L144.415536,130.70299 C144.415536,130.70299 126.168622,130.617193 118.783835,158.154071 C111.356569,185.690284 107.234736,200.964828 107.234736,200.964828 L58.4626879,228.372678 C58.4626879,228.372678 55.1997354,224.62953 51.4645308,222.134099 C47.7722703,219.681233 43.4359816,221.78958 43.4359816,221.78958 C43.4359816,221.78958 42.6202435,222.305693 42.7919533,223.080527 C42.9637296,223.81213 39.8724869,222.908268 39.1426369,225.188874 C38.4127869,227.512047 38.198133,230.481026 39.443179,233.66483 C40.645281,236.848634 42.1479915,238.569896 42.1479915,238.569896 C42.1479915,238.569896 39.0138711,239.258268 31.6722278,238.31184 C24.3306509,237.365411 22.6991746,237.10669 23.0425944,239.12924 C23.3860806,241.151125 31.1999758,243.689788 31.1999758,243.689788 C31.1999758,243.689788 28.6668733,244.076873 26.563145,243.733019 C24.4164727,243.431732 24.2877069,247.347139 31.4146298,248.251002 C38.5844968,249.19743 40.7311691,248.896142 40.7311691,248.896142 C40.7311691,248.896142 36.9100765,249.670312 33.6471903,249.842571 C30.4271818,249.971599 30.8994338,252.854781 34.5487502,253.543153 C38.198133,254.188294 46.4413361,255.350213 71.8579843,247.218111 C97.2746326,239.086009 115.607169,226.995934 119.513951,223.941158 C123.420733,220.928949 126.511776,216.669688 126.511776,216.669688 L172.021203,216.669688 L217.48815,216.669688 C217.48815,216.669688 220.579194,220.928949 224.485976,223.941158 C228.392757,226.995934 246.725294,239.086009 272.141942,247.218111 C297.601734,255.350213 305.802258,254.188294 309.451508,253.543153 C313.100758,252.854781 313.572678,249.971599 310.352869,249.842571 C307.13306,249.670312 303.268757,248.896142 303.268757,248.896142 C303.268757,248.896142 305.415297,249.19743 312.585695,248.251002 C319.712286,247.347139 319.58352,243.431732 317.436981,243.733019 C315.332921,244.076873 312.800083,243.689788 312.800083,243.689788 C312.800083,243.689788 320.613647,241.151125 320.957465,239.12924 C321.300619,237.10669 319.669143,237.365411 312.3275,238.31184 C304.98652,239.258268 301.852333,238.569896 301.852333,238.569896 C301.852333,238.569896 303.355044,236.848634 304.557079,233.66483 C305.802258,230.481026 305.587206,227.512047 304.857091,225.188874 C304.127639,222.908268 301.036595,223.81213 301.20784,223.080527 C301.379749,222.305693 300.564011,221.78958 300.564011,221.78958 C300.564011,221.78958 296.227789,219.681233 292.535396,222.134099 C288.800523,224.62953 285.53757,228.372678 285.53757,228.372678 L236.765191,200.964828 C236.765191,200.964828 232.643357,185.690284 225.216091,158.154071 C217.831305,130.617193 199.627534,130.70299 199.627534,130.70299 L177.173827,126.486296 L176.400569,119.258056 L172.021203,119 L167.599358,119.258056 Z M300.478389,224.457271 C300.478389,224.457271 299.662651,224.672096 300.092091,226.909472 C300.520868,229.146848 299.877039,236.461549 295.025753,235.902205 C290.131325,235.342861 292.020332,229.362338 294.124393,226.866906 C296.227789,224.371474 298.116797,225.317903 298.975678,224.672096 C299.791416,224.026956 300.478389,224.457271 300.478389,224.457271 Z M43.5218697,224.457271 C43.5218697,224.457271 44.3804856,224.672096 43.9082336,226.909472 C43.4789257,229.146848 44.1228875,236.461549 49.0173164,235.902205 C53.8688012,235.342861 51.9797269,229.362338 49.8759986,226.866906 C47.8152144,224.371474 45.883196,225.317903 45.0674579,224.672096 C44.2087757,224.026956 43.5218697,224.457271 43.5218697,224.457271 Z" id="Shape" fill="#D7BFAD"></path>
                <path d="M168.177167,119.246551 L168,120.643886 C168.707983,122.411682 170.168411,125.083711 172.689787,125.741393 C174.548328,126.193827 176.45133,125.987944 178,125.618117 L177.247555,119.246551 L172.73425,119 L168.177167,119.246551 Z" id="Path" fill="#87B3F6"></path>
                <path d="M150.963302,130 L144.908409,131.160213 C144.908409,131.160213 143.14771,131.117045 140.571061,131.933245 C140.098354,143.404539 138.809698,170.815307 136.7914,187.613484 C134.17226,209.352692 127,217 127,217 L172.521245,217 L218,217 C218,217 210.82774,209.352692 208.2086,187.613484 C206.190302,170.815307 204.901646,143.404539 204.428939,131.933245 C201.85229,131.117045 200.134745,131.160213 200.134745,131.160213 L194.036698,130 C193.951053,136.229418 192.963149,147.185357 187.337144,151.868047 C183.257394,155.262349 177.374455,156.250555 172.521245,156.379394 C167.625545,156.250555 161.742606,155.262349 157.662856,151.868047 C152.036851,147.185357 151.048947,136.229418 150.963302,130 Z" id="Path" fill="#87B3F6"></path>
                <path d="M136.834554,187 L136.7914,187.218069 C134.17226,209.249792 127,217 127,217 L172.521245,217 L218,217 C218,217 211.128493,209.554686 208.37989,188.523792 C200.005946,192.573553 190.000102,195.403742 178.190405,195.839208 C162.042695,196.492069 148.214699,192.573553 136.834554,187 Z" id="Path" fill="#B8C2F8"></path>
                <path d="M131.810055,208 C129.362205,214.415289 127,217 127,217 L172.521245,217 L218,217 C218,217 215.680949,214.415289 213.189945,208 L131.810055,208 Z" id="Path" fill="#967FE8"></path>
                <path d="M43,244.592803 C43,244.592803 39.0584322,244.915803 36.0365455,244.851803 C33.0583984,244.786803 31,244.139803 31,244.139803" id="Path" stroke="#1009C1" stroke-width="1.2939" stroke-linecap="round" stroke-linejoin="round"></path>
                <line x1="44" y1="248.112" x2="41" y2="248.888" id="Path" stroke="#1009C1" stroke-width="1.2939" stroke-linecap="round" stroke-linejoin="round"></line>
                <path d="M301,244.592803 C301,244.592803 304.941319,244.915803 307.963155,244.851803 C310.941658,244.786803 313,244.139803 313,244.139803" id="Path" stroke="#1009C1" stroke-width="1.2939" stroke-linecap="round" stroke-linejoin="round"></path>
                <line x1="301" y1="248.112" x2="304" y2="248.888" id="Path" stroke="#1009C1" stroke-width="1.2939" stroke-linecap="round" stroke-linejoin="round"></line>
                <path d="M173.330763,88.0301057 C184.981611,88.5964026 184.557861,98.1796819 184.303741,104.93215 C189.387439,101.839401 191.971204,108.678059 183.45624,111.640176 L183.498812,111.465775 C181.761893,117.869442 177.228351,125.187534 171.975678,123.837444 C166.425659,122.443586 162.485499,116.824385 160.62152,111.683945 C152.318104,108.808691 154.436202,102.361929 159.13872,104.627117 C158.122243,94.9563009 161.384533,87.4638087 173.330763,88.0301057 Z" id="Path" fill="#D7BFAD"></path>
                <path d="M162,104 C162,104 163.898506,100.661784 166.881474,101.028082 C169.864442,101.394379 170,103.226496 170,103.226496" id="Path" stroke="#1009C1" stroke-width="1.2939" stroke-linecap="round" stroke-linejoin="round"></path>
                <path d="M177.000066,106.173513 C177.000066,106.173513 176.954064,108.251917 179.288837,107.974511 C181.623609,107.731914 180.891118,106 180.891118,106" id="Path" stroke="#1009C1" stroke-width="1.2939" stroke-linecap="round" stroke-linejoin="round"></path>
                <path d="M164,106.047477 C164,106.047477 164.383357,109.307289 166.385769,108.976414 C168.388181,108.598793 167.96201,106 167.96201,106" id="Path" stroke="#1009C1" stroke-width="1.2939" stroke-linecap="round" stroke-linejoin="round"></path>
                <path d="M170.004528,116 C169.88934,117.571403 172.001311,118.713706 173,117.47572" id="Path" stroke="#1009C1" stroke-width="1.2939" stroke-linecap="round" stroke-linejoin="round"></path>
                <path d="M158.650813,104.699401 C158.650813,104.699401 158.221611,91.447787 169.206399,90.8459245 C180.191851,90.2866247 182.122265,95.4925686 183.238058,99.3212117 C184.010224,101.945465 184.138918,103.666592 184.138918,104.483928 L184.138918,104.699401 C184.138918,104.91421 184.138918,105 184.138918,105 C184.138918,105 184.182037,104.91421 184.225157,104.785192 L184.310732,104.91421 C185.083561,104.483928 185.812607,104.26912 186.413623,104.225892 C186.971519,102.074483 187.057095,99.9669669 186.971519,98.1593845 C186.24181,80.6495102 156.762854,80.6062825 156.033144,98.0735941 C155.990688,99.9237392 155.90445,102.03192 156.41989,104.26912 C157.063362,104.182664 157.793072,104.311682 158.650813,104.699401 Z" id="Path" stroke="#1009C1" stroke-width="1.2939" fill="#1009C1" stroke-linecap="round" stroke-linejoin="round"></path>
                <line x1="66" y1="259" x2="110" y2="263" id="Path" stroke="#1009C1" stroke-width="1.2939" stroke-linecap="round" stroke-linejoin="round"></line>
                <polyline id="Path" stroke="#1009C1" stroke-width="1.2939" stroke-linecap="round" stroke-linejoin="round" points="124 307 136.768685 275.450158 189 270"></polyline>
                <line x1="269" y1="258" x2="241" y2="262" id="Path" stroke="#1009C1" stroke-width="1.2939" stroke-linecap="round" stroke-linejoin="round"></line>
                <line x1="128" y1="328" x2="122" y2="339" id="Path" stroke="#1009C1" stroke-width="1.2939" stroke-linecap="round" stroke-linejoin="round"></line>
                <line x1="159" y1="105" x2="160" y2="110" id="Path" stroke="#1009C1" stroke-width="1.2939" stroke-linecap="round" stroke-linejoin="round"></line>
                <line x1="184.8885" y1="105" x2="184.1115" y2="109" id="Path" stroke="#1009C1" stroke-width="1.2939" stroke-linecap="round" stroke-linejoin="round"></line>
                <path d="M190,49 L272,49 C272,49 270.627485,40.9367681 264.062098,40.1346996 C257.496711,39.3325659 255.09398,43.216441 255.09398,43.216441 C255.09398,43.216441 254.021309,35.6597958 248.486138,35.5753538 C242.907848,35.5331328 238.873887,41.6966808 238.873887,41.6966808 C238.873887,41.6966808 236.814782,22.6995807 221.453091,25.2325143 C206.0914,27.8076689 204.203445,44.0185095 204.203445,44.0185095 C204.203445,44.0185095 201.672019,38.2771715 196.05061,40.3035184 C190.429201,42.3299305 190,49 190,49 Z" id="Path" stroke="#A9B0F4" stroke-width="1.2939" stroke-linecap="round" stroke-linejoin="round"></path>
                <path d="M11.0024521,109 L76,109 C76,109 72.7669078,103.795069 68.3703821,103.118042 C63.9743229,102.441016 60.7416971,105.99557 60.7416971,105.99557 C60.7416971,105.99557 58.5866132,97.6167899 52.8541381,98.7170404 C47.1215964,99.7747723 46.3457742,104.7259 46.3457742,104.7259 C38.3288782,76.5007454 10.7007324,88.1802774 11.0024521,109 Z" id="Path" stroke="#A9B0F4" stroke-width="1.2939" stroke-linecap="round" stroke-linejoin="round"></path>
                <line x1="300" y1="196" x2="306" y2="198" id="Path" stroke="#A9B0F4" stroke-width="1.2939" stroke-linecap="round" stroke-linejoin="round"></line>
                <line x1="326" y1="256" x2="331" y2="253" id="Path" stroke="#A9B0F4" stroke-width="1.2939" stroke-linecap="round" stroke-linejoin="round"></line>
                <line x1="98.5" y1="139" x2="98.5" y2="155" id="Path" stroke="#87B3F6" stroke-width="1.2939" stroke-linecap="round" stroke-linejoin="round"></line>
                <line x1="107" y1="146.5" x2="91" y2="146.5" id="Path" stroke="#87B3F6" stroke-width="1.2939" stroke-linecap="round" stroke-linejoin="round"></line>
                <line x1="266.5" y1="177" x2="266.5" y2="193" id="Path" stroke="#87B3F6" stroke-width="1.2939" stroke-linecap="round" stroke-linejoin="round"></line>
                <line x1="275" y1="184.5" x2="259" y2="184.5" id="Path" stroke="#87B3F6" stroke-width="1.2939" stroke-linecap="round" stroke-linejoin="round"></line>
                <line x1="257.5" y1="97" x2="257.5" y2="108" id="Path" stroke="#87B3F6" stroke-width="1.2939" stroke-linecap="round" stroke-linejoin="round"></line>
                <line x1="263" y1="102.5" x2="252" y2="102.5" id="Path" stroke="#87B3F6" stroke-width="1.2939" stroke-linecap="round" stroke-linejoin="round"></line>
                <path d="M128.325238,59.4819215 C123.757699,62.7088798 132.300422,69.6862201 134.330512,71.0377516 C136.360602,72.3899571 138.178856,73 138.178856,73 C138.178856,73 146.933415,64.1043613 145.918043,59.2203108 C145.283844,56.1677371 142.15404,55.2956117 139.870271,56.5601868 C137.628999,57.8248293 136.402446,61.2698527 136.402446,61.2698527 C134.626689,58.260892 131.28505,57.3887666 128.325238,59.4819215 Z" id="Path" fill="#967FE8"></path>
                <path d="M209.216199,80.2309769 C203.886939,81.6443511 209.65673,90.9644276 211.109731,92.9083292 C212.60767,94.8515481 214.104929,96 214.104929,96 C214.104929,96 225.33539,90.7882679 225.952269,85.9732365 C226.392799,82.9252642 223.70604,81.1145065 221.107796,81.4681915 C218.553128,81.8655749 216.262643,84.6479421 216.262643,84.6479421 C215.602188,81.2469677 212.739761,79.3037488 209.216199,80.2309769 Z" id="Path" fill="#967FE8"></path>
                <path d="M51.0016641,213 C51.0016641,213 62.5712007,206.859371 61.9779399,191.811587 C61.3422237,176.80725 52.3578105,179.575111 46.9332901,183.510007 C41.5087042,187.48768 40.6611044,193.62831 43.8819442,193.88765 C47.060394,194.190438 57.7400067,185.282615 55.6210401,173.607599 C53.5444633,161.889805 44.8566478,164.181094 44.8566478,164.181094" id="Path" stroke="#1009C1" stroke-width="1.2939" stroke-linecap="round" stroke-linejoin="round"></path>
                <path d="M245.473579,167 C245.473579,167 239.672992,162.56096 241.282047,153.256657 C242.932999,143.951694 252.248896,148.603846 251.994903,153.597766 C251.740911,158.591687 246.786747,156.244168 245.304687,150.055375 C243.780077,143.823696 250.766836,139 250.766836,139" id="Path" stroke="#1009C1" stroke-width="1.2939" stroke-linecap="round" stroke-linejoin="round"></path>
                <path d="M83.5002304,59 C94.269369,59 103,50.2695742 103,39.5000329 C103,28.7304258 94.269369,20 83.5002304,20 C72.7304336,20 64,28.7304258 64,39.5000329 C64,50.2695742 72.7304336,59 83.5002304,59 Z" id="Path" fill="#FFF91F" fill-rule="nonzero"></path>
                <path d="M109,66 L101.971469,58.9345365 M57,14 L64.0281981,21.0654635 L57,14 Z" id="Shape" stroke="#FFF91F" stroke-width="1.2939" stroke-linecap="round" stroke-linejoin="round"></path>
                <path d="M109,14 L101.971469,21.0654635 M57,66 L64.0281981,58.9345365 L57,66 Z" id="Shape" stroke="#FFF91F" stroke-width="1.2939" stroke-linecap="round" stroke-linejoin="round"></path>
                <line x1="307" y1="97" x2="301" y2="99" id="Path" stroke="#A9B0F4" stroke-width="1.2939" stroke-linecap="round" stroke-linejoin="round"></line>
                <line x1="273" y1="79" x2="271" y2="84" id="Path" stroke="#A9B0F4" stroke-width="1.2939" stroke-linecap="round" stroke-linejoin="round"></line>
                <line x1="278" y1="109" x2="280" y2="110" id="Path" stroke="#A9B0F4" stroke-width="1.2939" stroke-linecap="round" stroke-linejoin="round"></line>
                <line x1="299" y1="171" x2="300" y2="173" id="Path" stroke="#A9B0F4" stroke-width="1.2939" stroke-linecap="round" stroke-linejoin="round"></line>
                <line x1="259" y1="5" x2="253" y2="7" id="Path" stroke="#A9B0F4" stroke-width="1.2939" stroke-linecap="round" stroke-linejoin="round"></line>
                <line x1="207" y1="0" x2="205" y2="5" id="Path" stroke="#A9B0F4" stroke-width="1.2939" stroke-linecap="round" stroke-linejoin="round"></line>
                <line x1="150" y1="22" x2="154" y2="26" id="Path" stroke="#A9B0F4" stroke-width="1.2939" stroke-linecap="round" stroke-linejoin="round"></line>
                <line x1="190" y1="19" x2="192" y2="18" id="Path" stroke="#A9B0F4" stroke-width="1.2939" stroke-linecap="round" stroke-linejoin="round"></line>
                <line x1="300" y1="30" x2="298" y2="29" id="Path" stroke="#A9B0F4" stroke-width="1.2939" stroke-linecap="round" stroke-linejoin="round"></line>
                <line x1="147" y1="84" x2="141" y2="82" id="Path" stroke="#A9B0F4" stroke-width="1.2939" stroke-linecap="round" stroke-linejoin="round"></line>
                <line x1="36" y1="124" x2="35" y2="130" id="Path" stroke="#A9B0F4" stroke-width="1.2939" stroke-linecap="round" stroke-linejoin="round"></line>
                <line x1="11" y1="132" x2="15" y2="137" id="Path" stroke="#A9B0F4" stroke-width="1.2939" stroke-linecap="round" stroke-linejoin="round"></line>
                <line x1="0.53235" y1="168" x2="0.46765" y2="166" id="Path" stroke="#A9B0F4" stroke-width="1.2939" stroke-linecap="round" stroke-linejoin="round"></line>
                <line x1="297" y1="48" x2="300" y2="53" id="Path" stroke="#A9B0F4" stroke-width="1.2939" stroke-linecap="round" stroke-linejoin="round"></line>
                <path d="M156,106 C157.175684,106.355891 158.269898,106.755754 159,108" id="Path" stroke="#1009C1" stroke-width="1.2939" stroke-linecap="round" stroke-linejoin="round"></path>
                <line x1="157" y1="108" x2="158" y2="107" id="Path" stroke="#1009C1" stroke-width="1.2939" stroke-linecap="round" stroke-linejoin="round"></line>
                <path d="M187,107 C185.791497,107.355891 184.749839,107.800412 184,109" id="Path" stroke="#1009C1" stroke-width="1.2939" stroke-linecap="round" stroke-linejoin="round"></path>
                <line x1="186" y1="109" x2="185" y2="108" id="Path" stroke="#1009C1" stroke-width="1.2939" stroke-linecap="round" stroke-linejoin="round"></line>
                <line x1="18" y1="203" x2="14" y2="207" id="Path" stroke="#A9B0F4" stroke-width="1.2939" stroke-linecap="round" stroke-linejoin="round"></line>
                <line x1="8.53235" y1="241" x2="8.46765" y2="239" id="Path" stroke="#A9B0F4" stroke-width="1.2939" stroke-linecap="round" stroke-linejoin="round"></line>
                <line x1="8" y1="270" x2="13" y2="267" id="Path" stroke="#A9B0F4" stroke-width="1.2939" stroke-linecap="round" stroke-linejoin="round"></line>
                <line x1="16" y1="63" x2="20" y2="67" id="Path" stroke="#A9B0F4" stroke-width="1.2939" stroke-linecap="round" stroke-linejoin="round"></line>
                <line x1="27" y1="9" x2="29" y2="8" id="Path" stroke="#A9B0F4" stroke-width="1.2939" stroke-linecap="round" stroke-linejoin="round"></line>
                <path d="M166,113 C167.656925,113 169,112.552377 169,111.999613 C169,111.447623 167.656925,111 166,111 C164.343075,111 163,111.447623 163,111.999613 C163,112.552377 164.343075,113 166,113 Z" id="Path" fill="#967FE8" fill-rule="nonzero"></path>
                <path d="M179,112 C180.656925,112 182,111.552377 182,110.999613 C182,110.447623 180.656925,110 179,110 C177.343075,110 176,110.447623 176,110.999613 C176,111.552377 177.343075,112 179,112 Z" id="Path" fill="#967FE8" fill-rule="nonzero"></path>
                <path d="M172,113 L176.434461,112.603979 C176.434461,112.603979 173.478154,109.522909 173.478154,106.353381 C173.478154,103.183852 174.912615,99.7503101 177.695496,100.014324 C180.52207,100.322567 181,102.832061 181,102.832061" id="Path" stroke="#1009C1" stroke-width="1.2939" stroke-linecap="round" stroke-linejoin="round"></path>
                <path d="M35,253.544057 C38.6506091,254.102294 46.8967321,255.304394 72.3223169,247.231536 C97.7479681,239.158679 116.086998,227.049392 119.995164,224 M225.004371,224 C228.913201,227.049392 247.252231,239.115533 272.677882,247.231536 C298.146028,255.34754 306.349457,254.187921 310,253.544057" id="Shape" stroke="#1009C1" stroke-width="1.2939" stroke-linecap="round" stroke-linejoin="round"></path>
            </g>
        </g>
    </g>
</svg>